<svg width="64" height="50" viewBox="0 0 64 50" fill="none" xmlns="http://www.w3.org/2000/svg">
<path d="M54.4821 1.00001L58.1835 2.11867L57.3844 4.76254L60.0283 5.56158L59.2293 8.20545L62.4019 9.1643L61.4431 12.3369" stroke="#AD75EF"/>
<path d="M9.51799 49.1956L5.81657 48.077L6.61562 45.4331L3.97175 44.6341L4.77079 41.9902L1.59815 41.0313L2.55701 37.8587" stroke="#AD75EF"/>
<path d="M46.0787 1.00001L51.52 2.2605L50.585 6.29658L54.4716 7.19694L53.5366 11.233L58.2005 12.3134L57.0786 17.1567" stroke="#9428F9"/>
<path d="M17.9212 49.1956L12.48 47.9351L13.4149 43.8991L9.52835 42.9987L10.4633 38.9626L5.79941 37.8822L6.92139 33.0389" stroke="#9428F9"/>
<path d="M29.8293 48.506L18.7814 11.4955L19.3338 9.28593L21.5434 8.73354C27.4356 10.2066 41.1648 11.9155 44.744 13.7051C45.8488 14.2575 45.8488 15.3623 44.744 16.4671L35.9057 26.4102C39.2201 27.3308 46.4012 29.2826 48.6108 29.7246C50.8204 30.1665 49.5314 32.1183 48.6108 33.0389C44.5599 37.4581 35.7952 46.7383 33.1437 48.506C30.4922 50.2736 29.8293 49.2425 29.8293 48.506Z" fill="#9428F9"/>
</svg>
